<mxfile host="app.diagrams.net" modified="2023-04-09T12:44:19.575Z" agent="Mozilla/5.0 (Macintosh; Intel Mac OS X 10_15_7) AppleWebKit/537.36 (KHTML, like Gecko) Chrome/111.0.0.0 Safari/537.36" version="21.1.4" etag="y3Gx6H7JW9DJEHlyv73i" type="github">
  <diagram name="Page-1" id="iYNMNM8yDtwc89lfjrXv">
    <mxGraphModel>
      <root>
        <mxCell id="0" />
        <mxCell id="1" parent="0" />
      </root>
    </mxGraphModel>
  </diagram>
</mxfile>
